{
    "asset" : {
        "generator" : "Khronos glTF Blender I/O v3.3.32",
        "version" : "2.0"
    },
    "scene" : 0,
    "scenes" : [
        {
            "name" : "Scene",
            "nodes" : [
                0
            ]
        }
    ],
    "nodes" : [
        {
            "mesh" : 0,
            "name" : "Egg"
        }
    ],
    "materials" : [
        {
            "doubleSided" : true,
            "name" : "Egg",
            "pbrMetallicRoughness" : {
                "baseColorFactor" : [
                    0.8000001311302185,
                    0.5351678133010864,
                    0.24455709755420685,
                    1
                ],
                "metallicFactor" : 0,
                "roughnessFactor" : 0.5
            }
        }
    ],
    "meshes" : [
        {
            "name" : "Circle.001",
            "primitives" : [
                {
                    "attributes" : {
                        "POSITION" : 0,
                        "NORMAL" : 1
                    },
                    "indices" : 2,
                    "material" : 0
                }
            ]
        }
    ],
    "accessors" : [
        {
            "bufferView" : 0,
            "componentType" : 5126,
            "count" : 1749,
            "max" : [
                1.9309250116348267,
                2.768115997314453,
                1.9309250116348267
            ],
            "min" : [
                -1.930925965309143,
                -2.5544698238372803,
                -1.9309250116348267
            ],
            "type" : "VEC3"
        },
        {
            "bufferView" : 1,
            "componentType" : 5126,
            "count" : 1749,
            "type" : "VEC3"
        },
        {
            "bufferView" : 2,
            "componentType" : 5123,
            "count" : 10164,
            "type" : "SCALAR"
        }
    ],
    "bufferViews" : [
        {
            "buffer" : 0,
            "byteLength" : 20988,
            "byteOffset" : 0,
            "target" : 34962
        },
        {
            "buffer" : 0,
            "byteLength" : 20988,
            "byteOffset" : 20988,
            "target" : 34962
        },
        {
            "buffer" : 0,
            "byteLength" : 20328,
            "byteOffset" : 41976,
            "target" : 34963
        }
    ],
    "buffers" : [
        {
            "byteLength" : 62304,
            "uri" : "egg-3c01599628663c276a6c59db53852839.bin"
        }
    ]
}
