{
    "asset" : {
        "generator" : "Khronos glTF Blender I/O v3.3.32",
        "version" : "2.0"
    },
    "scene" : 0,
    "scenes" : [
        {
            "name" : "Scene",
            "nodes" : [
                0,
                1
            ]
        }
    ],
    "nodes" : [
        {
            "mesh" : 0,
            "name" : "EggBottom"
        },
        {
            "mesh" : 1,
            "name" : "EggTop"
        }
    ],
    "materials" : [
        {
            "doubleSided" : true,
            "name" : "Egg.002",
            "pbrMetallicRoughness" : {
                "baseColorFactor" : [
                    0.8000001311302185,
                    0.5351678133010864,
                    0.24455709755420685,
                    1
                ],
                "metallicFactor" : 0,
                "roughnessFactor" : 0.5
            }
        }
    ],
    "meshes" : [
        {
            "name" : "Circle.004",
            "primitives" : [
                {
                    "attributes" : {
                        "POSITION" : 0,
                        "NORMAL" : 1
                    },
                    "indices" : 2,
                    "material" : 0
                }
            ]
        },
        {
            "name" : "Circle.005",
            "primitives" : [
                {
                    "attributes" : {
                        "POSITION" : 3,
                        "NORMAL" : 4
                    },
                    "indices" : 5,
                    "material" : 0
                }
            ]
        }
    ],
    "accessors" : [
        {
            "bufferView" : 0,
            "componentType" : 5126,
            "count" : 6595,
            "max" : [
                1.9309250116348267,
                1.3135709762573242,
                1.9309250116348267
            ],
            "min" : [
                -1.930925965309143,
                -2.5544698238372803,
                -1.9309250116348267
            ],
            "type" : "VEC3"
        },
        {
            "bufferView" : 1,
            "componentType" : 5126,
            "count" : 6595,
            "type" : "VEC3"
        },
        {
            "bufferView" : 2,
            "componentType" : 5123,
            "count" : 6618,
            "type" : "SCALAR"
        },
        {
            "bufferView" : 3,
            "componentType" : 5126,
            "count" : 3494,
            "max" : [
                1.6629019975662231,
                2.768115997314453,
                1.6629019975662231
            ],
            "min" : [
                -1.6629029512405396,
                1.034472942352295,
                -1.6629029512405396
            ],
            "type" : "VEC3"
        },
        {
            "bufferView" : 4,
            "componentType" : 5126,
            "count" : 3494,
            "type" : "VEC3"
        },
        {
            "bufferView" : 5,
            "componentType" : 5123,
            "count" : 3552,
            "type" : "SCALAR"
        }
    ],
    "bufferViews" : [
        {
            "buffer" : 0,
            "byteLength" : 79140,
            "byteOffset" : 0,
            "target" : 34962
        },
        {
            "buffer" : 0,
            "byteLength" : 79140,
            "byteOffset" : 79140,
            "target" : 34962
        },
        {
            "buffer" : 0,
            "byteLength" : 13236,
            "byteOffset" : 158280,
            "target" : 34963
        },
        {
            "buffer" : 0,
            "byteLength" : 41928,
            "byteOffset" : 171516,
            "target" : 34962
        },
        {
            "buffer" : 0,
            "byteLength" : 41928,
            "byteOffset" : 213444,
            "target" : 34962
        },
        {
            "buffer" : 0,
            "byteLength" : 7104,
            "byteOffset" : 255372,
            "target" : 34963
        }
    ],
    "buffers" : [
        {
            "byteLength" : 262476,
            "uri" : "splitegg-4b824fe6a836777211b92832301779bb.bin"
        }
    ]
}
