{
    "asset" : {
        "generator" : "Khronos glTF Blender I/O v3.3.32",
        "version" : "2.0"
    },
    "scene" : 0,
    "scenes" : [
        {
            "name" : "Scene",
            "nodes" : [
                0,
                1
            ]
        }
    ],
    "nodes" : [
        {
            "mesh" : 0,
            "name" : "EggBottom"
        },
        {
            "mesh" : 1,
            "name" : "EggTop"
        }
    ],
    "materials" : [
        {
            "doubleSided" : true,
            "name" : "Egg.002",
            "pbrMetallicRoughness" : {
                "baseColorFactor" : [
                    0.8000001311302185,
                    0.5351678133010864,
                    0.24455709755420685,
                    1
                ],
                "metallicFactor" : 0,
                "roughnessFactor" : 0.5
            }
        }
    ],
    "meshes" : [
        {
            "name" : "Circle.004",
            "primitives" : [
                {
                    "attributes" : {
                        "POSITION" : 0,
                        "NORMAL" : 1
                    },
                    "indices" : 2,
                    "material" : 0
                }
            ]
        },
        {
            "name" : "Circle.005",
            "primitives" : [
                {
                    "attributes" : {
                        "POSITION" : 3,
                        "NORMAL" : 4
                    },
                    "indices" : 5,
                    "material" : 0
                }
            ]
        }
    ],
    "accessors" : [
        {
            "bufferView" : 0,
            "componentType" : 5126,
            "count" : 488,
            "max" : [
                1.9284225702285767,
                1.0344361066818237,
                1.9284223318099976
            ],
            "min" : [
                -1.9544709920883179,
                -2.5623936653137207,
                -1.9268990755081177
            ],
            "type" : "VEC3"
        },
        {
            "bufferView" : 1,
            "componentType" : 5126,
            "count" : 488,
            "type" : "VEC3"
        },
        {
            "bufferView" : 2,
            "componentType" : 5123,
            "count" : 510,
            "type" : "SCALAR"
        },
        {
            "bufferView" : 3,
            "componentType" : 5126,
            "count" : 490,
            "max" : [
                1.6669739484786987,
                2.763737440109253,
                1.6669743061065674
            ],
            "min" : [
                -1.6647005081176758,
                1.0345933437347412,
                -1.6669738292694092
            ],
            "type" : "VEC3"
        },
        {
            "bufferView" : 4,
            "componentType" : 5126,
            "count" : 490,
            "type" : "VEC3"
        },
        {
            "bufferView" : 5,
            "componentType" : 5123,
            "count" : 522,
            "type" : "SCALAR"
        }
    ],
    "bufferViews" : [
        {
            "buffer" : 0,
            "byteLength" : 5856,
            "byteOffset" : 0,
            "target" : 34962
        },
        {
            "buffer" : 0,
            "byteLength" : 5856,
            "byteOffset" : 5856,
            "target" : 34962
        },
        {
            "buffer" : 0,
            "byteLength" : 1020,
            "byteOffset" : 11712,
            "target" : 34963
        },
        {
            "buffer" : 0,
            "byteLength" : 5880,
            "byteOffset" : 12732,
            "target" : 34962
        },
        {
            "buffer" : 0,
            "byteLength" : 5880,
            "byteOffset" : 18612,
            "target" : 34962
        },
        {
            "buffer" : 0,
            "byteLength" : 1044,
            "byteOffset" : 24492,
            "target" : 34963
        }
    ],
    "buffers" : [
        {
            "byteLength" : 25536,
            "uri" : "spliteggcollisions-eef37d295597b60386425936456919fd.bin"
        }
    ]
}
